# xmcd
#
# Track frame offsets: 
#        150
#        14257
#        26307
#        39288
#        53805
#        68259
#        81396
#        96054
#        118822
#        132615
#        146291
#        161320
#        175492
#        188168
#        202878
#        215732
#        228824
#        242383
#        253718
#        266552
#        278935
#        290546
#        302798
#        315920
#
# Disc length: 4372 seconds
#
# Revision: 2
# Processed by: cddbd v1.5.2PL0 Copyright (c) Steve Scherf et al.
# Submitted via: ExactAudioCopyFreeDBPlugin 1.0
#
DISCID=47111218
DTITLE=Charles Brown - Charles Brown:  The Classic Earliest Recordings
DTITLE=, 1944-1950 [JSP Records]
DYEAR=2003
DGENRE=Rhythm and Blues
TTITLE0='Til the Right One Comes Along
TTITLE1=Rocks in My Bed
TTITLE2=Travelin' Blues
TTITLE3=I'll Get Along Somehow
TTITLE4=What Do You Know About Love
TTITLE5=Nutmeg
TTITLE6=It's the Talk of the Town
TTITLE7=Warsaw Concerto, Parts 1 and 2
TTITLE8=How Deep is the Ocean
TTITLE9=You Left Me Forsaken
TTITLE10=So Long
TTITLE11=You Won't Let Me Go
TTITLE12=It Had to Be You
TTITLE13=You Showed Me the Way
TTITLE14=More Than You Know
TTITLE15=Sail on Blues
TTITLE16=Blue Because of You
TTITLE17=Make Believe Land
TTITLE18=If You Should Ever Leave
TTITLE19=When Your Lover Has Gone
TTITLE20=Way Over There By the Cherry Tree
TTITLE21=Sunny Road
TTITLE22=Be Fair with Me
TTITLE23=Falling in Love with You
EXTD=
EXTT0=
EXTT1=
EXTT2=
EXTT3=
EXTT4=
EXTT5=
EXTT6=
EXTT7=
EXTT8=
EXTT9=
EXTT10=
EXTT11=
EXTT12=
EXTT13=
EXTT14=
EXTT15=
EXTT16=
EXTT17=
EXTT18=
EXTT19=
EXTT20=
EXTT21=
EXTT22=
EXTT23=
PLAYORDER=
